<?xml version="1.0" encoding="utf-8"?>
<!-- Generator: Adobe Illustrator 16.0.0, SVG Export Plug-In . SVG Version: 6.00 Build 0)  -->
<!DOCTYPE svg PUBLIC "-//W3C//DTD SVG 1.1//EN" "http://www.w3.org/Graphics/SVG/1.1/DTD/svg11.dtd">
<svg version="1.1" id="logo-vetor.fw-Page_x25_201" xmlns="http://www.w3.org/2000/svg" xmlns:xlink="http://www.w3.org/1999/xlink"
     x="0px" y="0px" width="450px" height="227px" viewBox="0 0 450 227" enable-background="new 0 0 450 227" xml:space="preserve">
<g>
    <path fill="#222" d="M318.044,59.327c-3.116,0-14.546,5.229-15.585,7.32L301.42,29h-18.703v112.941
        c-1.038,1.045-3.116,3.137-4.155,3.137c-14.547,5.229-18.703,12.549-18.703,21.961S266.093,189,280.639,189
        c6.233,0,16.624-8.366,18.702-8.366c1.039,0,7.273,8.366,18.702,8.366c9.352,0,18.703-6.274,20.78-17.777V77.104
        C338.824,66.647,328.434,59.327,318.044,59.327z M319.113,163.902c-2.077,3.137-5.194,6.273-7.272,6.273
        c-3.117,0-6.234-3.137-9.352-5.229V84.425c2.078-6.274,6.234-5.229,8.313-5.229s4.156,0,8.312,4.183V163.902z"/>
    <path fill="#222" d="M380.385,59.327c-4.156,2.092-8.313,4.183-11.429,7.32c-1.039-2.091-1.039-4.183-1.039-6.274h-18.703
        v127.582h18.703V84.425c3.116-3.137,7.272-7.32,10.39-7.32c2.078,0,4.156,1.046,6.234,2.092v-19.87H380.385z"/>
</g>
<path fill="none" d="z"/>
<path fill="#222" d="M218.298,29h-18.702v158.954h18.702c0-3.138,0-5.229,1.039-6.274c2.078,3.137,11.43,7.32,15.585,7.32
    c8.313,0,20.781-6.274,20.781-20.915V76.059c0-9.412-10.391-16.732-20.781-16.732c-4.155,0-9.351,0-15.585,6.274L218.298,29z
     M235.961,83.379v81.568c-2.078,2.092-5.194,4.184-8.312,4.184c-2.078,0-6.234-3.137-8.313-5.229V83.379
    c3.117-3.137,6.234-4.183,8.313-4.183S234.922,78.15,235.961,83.379z M42.703,59.327H24v101.438C24,173.314,36.469,189,52.053,189
    c6.234,0,15.585-5.229,19.741-10.457C74.912,183.771,85.302,189,90.498,189c11.429,0,21.819-7.32,28.054-23.006V59.327h-17.664
    v103.529c-4.156,6.275-6.233,7.32-10.39,7.32s-6.234-1.045-9.352-7.32V59.327H62.444v104.576c-3.117,5.229-6.234,6.273-9.352,6.273
    c-5.195,0-7.273-2.091-10.39-9.411V59.327z M187.127,81.288c0-10.458-15.585-21.961-28.054-21.961
    c-12.468,0-21.819,6.274-28.054,23.007v83.661c0,12.549,17.664,23.006,28.054,23.006c10.391,0,24.937-7.32,28.054-24.053v-11.503
    h-17.663c2.078,9.411-4.156,16.731-10.391,16.731c-3.117,0-5.195-2.091-9.352-6.273v-23.007h37.405V81.288z M168.425,85.471v36.602
    H150.76V84.425c2.078-6.274,6.234-5.229,8.313-5.229C162.19,79.196,168.425,81.288,168.425,85.471z"/>
<g>
    <path fill="#FFFFFF" d="M2.117,173.333c0,3.93,1.305,7.56,3.478,10.079c2.116,2.227,5.29,3.525,8.607,3.525
        c6.005,0,7.681-3.734,7.681-7.635c0-1.05-0.197-2.04-0.339-2.91c-0.141-0.9-0.311-1.709-0.311-2.369
        c-1.741-1.021-3.257-1.68-4.028-1.951c-0.258,0.091-0.315,0.421-0.2,0.721c2.259,1.439,4.003,3.33,4.003,6.449
        c0,3.811-2.202,5.82-6.263,5.82c-3.774,0-7.12-2.04-8.55-3.54c-2.573-2.76-3.203-5.55-3.203-7.679c0-3.091,1.345-3.841,3.832-3.271
        c0.229-0.091,0.258-0.69,0.029-0.81c-1.059-0.271-2.717-0.871-3.832-1.351C2.738,169.163,2.117,170.993,2.117,173.333
        L2.117,173.333z"/>
    <path fill="#FFFFFF" d="M10.117,161.792c0,1.371,0.438,2.876,1.845,4.616c1.798,2.132,4.481,3.168,6.196,3.279
        c2.379,0.18,3.725-1.008,3.725-2.979c0-0.903-0.146-2.709-1.954-4.783c-2.103-2.244-4.758-3.031-6.279-3.113
        C11.63,158.692,10.117,159.654,10.117,161.792L10.117,161.792z M10.993,162.025c0-1.17,0.969-1.365,1.826-1.338
        c1.466,0.067,5.118,1.64,6.75,3.111c1.189,1.07,1.438,1.906,1.438,2.643c0,0.97-0.803,1.428-1.771,1.371
        c-1.466-0.1-4.759-1.404-6.916-3.345C11.242,163.498,10.993,162.695,10.993,162.025L10.993,162.025z"/>
    <path fill="#FFFFFF" d="M11.107,151.645c-0.564-0.4-0.99,0.054-0.99,0.706c0,1.387,0.99,3.217,2.468,4.356
        c0.228,0.03,0.427-0.119,0.427-0.359c-0.824-0.99-1.422-2.04-1.422-2.73c0-0.234,0.285-0.234,0.654-0.09l8.954,3.48
        c0.654,0.27,0.739-0.541,0.739-0.871c0-0.27-0.085-0.389-0.341-0.539c-3.127-1.77-5.345-2.921-7.221-4.673
        c-1.961-2.112-3.383-3.487-3.383-4.087c0-0.375,0.341-0.4,0.683-0.4c0.568,0,1.563,0.325,2.075,0.525
        c1.421,0.574,4.207,1.434,5.6,1.919c1.422,0.486,1.621,0.556,1.877,0.556c0.341,0,0.71-0.348,0.71-0.556
        c0-1.272-1.364-3.34-3.184-4.409c0.355,0,0.11,0.061,0.171,0.453c1.072,0.813,2.083,2.087,2.083,2.512
        c0,0.172-0.275,0.148-0.582,0.05c-0.245-0.075-5.236-1.974-6.768-2.478c-0.705-0.223-1.654-0.447-2.145-0.447
        c-0.899,0-1.396,0.476-1.396,1.567c0,1.872,3.112,5.273,6.419,7.28l-0.061,0.088L11.107,151.645L11.107,151.645z"/>
    <path fill="#FFFFFF" d="M10.993,132.285c-0.261-0.45-0.615-0.51-0.876-0.301v3.75c-2.688-0.81-4.698-1.41-6.595-2.789
        c-0.962-0.69-1.53-1.5-1.53-2.16c0-0.75,0.512-1.59,2.068-1.68c0.198-0.03,0.453-0.15,0.453-0.42c0-0.48-0.878-1.291-1.614-1.291
        c-1.112,0-1.782,1.201-1.782,2.311c0,1.74,0.618,3.3,2.264,4.8c1.981,1.771,4.189,2.579,6.736,3.36v2.579
        c0.213,0.39,0.663,0.511,0.876,0.21v-2.49c5.09,1.44,10.46,2.49,15.393,3.87c2.403,0.69,2.622,1.32,2.622,1.92
        c0,0.66-0.5,1.56-1.28,2.28c-0.219,0.18-0.312,0.449-0.125,0.689c0.25,0.33,0.781,0.69,1.405,0.69c0.268,0,0.875-0.569,0.875-2.19
        c0-1.77-0.714-3.149-1.031-3.6c-0.624-0.6-2.217-1.59-5.026-2.369c-3.434-0.961-6.431-1.771-9.928-2.67
        c-1.374-0.36-2.373-0.601-2.904-0.78V132.285L10.993,132.285z"/>
    <path fill="#FFFFFF" d="M10.117,125.994c0,0.907,0.227,2.127,1.374,3.754c2.467,3.189,6.051,4.189,7.901,4.189
        c1.439,0,2.49-0.525,2.49-2.063c0-1.314-0.28-3.097-2.079-5.005c-0.265-0.063-0.5,0.125-0.5,0.407
        c1.116,1.375,1.704,2.158,1.704,3.283c0,0.846-0.676,1.502-1.675,1.502c-1.175,0-2.114-0.219-2.613-0.438
        c-1.176-4.505-2.645-7.525-4.876-7.525C11.079,124.1,10.117,124.79,10.117,125.994L10.117,125.994z M10.993,126.619
        c0-0.563,0.38-0.719,0.674-0.719c0.265,0,1.146,0.25,1.997,1.22c1.028,1.157,1.587,2.128,2.174,4.192
        c-0.852-0.376-2.203-1.096-3.437-2.315C11.256,127.871,10.993,127.058,10.993,126.619L10.993,126.619z"/>
    <path fill="#FFFFFF" d="M10,118.915c0,1.44,1.26,2.58,2.81,3.54c0.336,0.029,0.504-0.18,0.448-0.48
        c-0.672-0.539-1.458-1.35-1.458-2.129c0-0.271,0.282-0.33,0.59-0.24c2.744,0.81,7.7,2.699,8.82,3.09
        c0.616,0.209,0.728-0.66,0.728-0.99c0-0.24-0.111-0.391-0.336-0.51c-3.229-1.59-6.655-3.271-8.845-5.008
        c-0.562-0.427-0.844-0.74-0.844-0.996c0-0.285,0.366-0.455,1.097-0.598c0.771-0.127,0.743-0.637,0.296-1.019
        c-0.58-0.382-1.392-0.668-1.836-0.668c-0.449,0-1.47,0.159-1.47,1.273c0,0.756,0.66,1.467,1.561,2.121
        c0.941,0.74,3.182,2.164,4.749,3.064v0.15l-3.527-1.291C12.025,117.955,10,117.415,10,118.915L10,118.915z"/>
    <path fill="#FFFFFF" d="M10.117,105.494c0,0.907,0.227,2.127,1.374,3.753c2.467,3.19,6.051,4.19,7.901,4.19
        c1.439,0,2.49-0.525,2.49-2.063c0-1.314-0.28-3.097-2.079-5.005c-0.265-0.063-0.5,0.125-0.5,0.407
        c1.116,1.376,1.704,2.158,1.704,3.284c0,0.845-0.676,1.501-1.675,1.501c-1.175,0-2.114-0.219-2.613-0.438
        c-1.176-4.504-2.645-7.524-4.876-7.524C11.079,103.6,10.117,104.29,10.117,105.494L10.117,105.494z M10.993,106.12
        c0-0.563,0.38-0.72,0.674-0.72c0.265,0,1.146,0.25,1.997,1.22c1.028,1.158,1.587,2.127,2.174,4.192
        c-0.852-0.375-2.203-1.095-3.437-2.315C11.256,107.371,10.993,106.558,10.993,106.12L10.993,106.12z M3.427,104.32
        c-0.359,0.09-0.569,0.3-0.569,0.51c0,0.18,0.149,0.39,0.449,0.633l4.92,3.816c0.271,0,0.45-0.282,0.42-0.532l-2.88-2.91
        c-0.239-0.25-0.33-0.406-0.33-0.498c0-0.06,0.061-0.12,0.391-0.27l2.76-1.26c0.06-0.27-0.09-0.54-0.3-0.63L3.427,104.32
        L3.427,104.32z"/>
    <path fill="#FFFFFF" d="M11.107,97.394c-0.564-0.4-0.99,0.054-0.99,0.707c0,1.387,0.99,3.217,2.468,4.357
        c0.228,0.03,0.427-0.12,0.427-0.36c-0.824-0.99-1.422-2.04-1.422-2.729c0-0.234,0.285-0.234,0.654-0.09l8.954,3.48
        c0.654,0.27,0.739-0.54,0.739-0.87c0-0.27-0.085-0.39-0.341-0.54c-3.127-1.77-5.345-2.92-7.221-4.672
        c-1.961-2.112-3.383-3.487-3.383-4.087c0-0.375,0.341-0.4,0.683-0.4c0.568,0,1.563,0.325,2.075,0.525
        c1.421,0.575,4.207,1.434,5.6,1.919c1.422,0.486,1.621,0.556,1.877,0.556c0.341,0,0.71-0.347,0.71-0.556
        c0-1.273-1.364-3.34-3.184-4.409c0.355,0,0.11,0.06,0.171,0.454c1.072,0.812,2.083,2.086,2.083,2.511
        c0,0.171-0.275,0.148-0.582,0.05c-0.245-0.075-5.236-1.973-6.768-2.477c-0.705-0.224-1.654-0.448-2.145-0.448
        c-0.899,0-1.396,0.476-1.396,1.567c0,1.873,3.112,5.273,6.419,7.28l-0.061,0.087L11.107,97.394L11.107,97.394z"/>
    <path fill="#FFFFFF" d="M10.117,80.633c0,1.35,0.531,2.64,1.614,3.9c2.334,2.442,5.702,3.405,7.622,3.405
        c2.021,0,2.529-0.888,2.529-1.851c0-1.884-0.753-3.774-2.175-4.944c-0.296-0.09-0.532,0.09-0.502,0.39
        c1.033,1.14,1.802,2.25,1.802,3.24c0,0.72-0.443,1.339-1.92,1.29c-2.275-0.09-4.668-1.02-6.115-2.01
        c-1.359-0.93-1.979-1.86-1.979-2.52c0-0.99,0.887-0.96,1.625-1.05c0.354-0.06,0.531-0.3,0.531-0.6s-0.206-1.47-1.388-1.47
        C10.86,78.413,10.117,79.133,10.117,80.633L10.117,80.633z"/>
    <path fill="#FFFFFF" d="M20.925,76.617c0.31,0.15,0.563,0.06,0.76-0.12c0.169-0.15,0.253-0.33,0.253-0.48
        c0-2.07-2.532-4.708-3.348-5.046c-0.298,0-0.493,0.113-0.521,0.339c1.092,0.768,2.072,2.157,2.072,2.667
        c0,0.24-0.336,0.21-0.616,0.09l-7.952-3.028c-0.812-0.287-1.063-0.287-1.231-0.136c-0.112,0.09-0.278,0.204-0.278,0.361
        c0,0.746,1.034,2.833,2.798,4.483c0.224,0.06,0.448-0.12,0.476-0.39c-1.147-1.5-1.483-2.28-1.483-2.49
        c0-0.203,0.224-0.203,0.532-0.06L20.925,76.617L20.925,76.617z M4.062,70.545c0,0.84,1.179,1.142,1.812,1.142
        c0.488,0,1.063-0.194,1.063-0.754c0-0.646-0.891-1.121-1.782-1.121C4.523,69.813,4.062,70.05,4.062,70.545L4.062,70.545z"/>
    <path fill="#FFFFFF" d="M10.739,59.763c-0.23,0.15-0.438,0.48-0.483,0.6c-0.069,0.18-0.139,0.39-0.139,0.72
        c0,0.748,0.162,1.417,0.668,2.473c0.62,1.199,1.803,2.457,3.756,3.861c2.692,1.524,5.06,2.021,5.74,2.021
        c0.828,0,1.656-0.361,1.656-0.994c0-1.115-2.041-4.099-4.645-6.078l0.029-0.08l2.663,0.884c0.681,0.214,0.946,0.268,1.153,0.268
        c0.237,0,0.799-0.161,0.799-0.777c0-1.518-1.656-3.648-3.313-4.908c0.394,0,0.232,0.21,0.232,0.42
        c1.605,1.71,2.151,2.58,2.151,3.09c0,0.24-0.192,0.38-0.738,0.21c-2.922-0.96-9.807-3.57-10.812-4.02
        c-0.391,0.18-0.69,0.96-0.45,1.47L10.739,59.763L10.739,59.763z M10.993,61.965c0-0.732,0.544-1.242,1.153-1.452
        c1.85,0.48,4.565,1.666,6.809,3.774c1.642,1.667,2.053,2.544,2.053,2.837c0,0.264-0.221,0.439-0.601,0.439
        c-2.242,0-6.38-1.784-8.181-3.656C11.344,63.036,10.993,62.607,10.993,61.965L10.993,61.965z"/>
</g>
<g>
    <path fill="#FFFFFF" d="M119.7,0.326l1.206,7.321l-4.269,8.156c0,0-1.64-3.461-4.361-5.376c-2.293-1.614-3.788-1.963-6.125-1.483
        c-3,0.618-6.402,4.202-7.888,8.62c-1.776,5.286-1.794,7.844-1.855,10.195c-0.1,3.767,0.495,5.993,0.495,5.993
        s-2.592-4.788-2.567-11.801c0.017-5.005,0.804-9.545,3.123-14.025c2.041-3.939,5.073-6.302,7.765-6.581
        c2.782-0.287,4.982,1.053,6.682,2.502c1.783,1.521,3.588,4.85,3.588,4.85L119.7,0.326L119.7,0.326z"/>
    <path fill="#FFFFFF" d="M120.226,41.753c0,0-1.888,3.367-3.063,4.664c-1.176,1.298-3.279,3.584-5.878,4.728
        c-2.598,1.142-3.959,1.359-6.526,1.111c-2.564-0.247-4.949-1.729-5.784-2.349c-0.835-0.617-2.969-2.44-4.176-4.138
        c-1.207-1.7-3.094-5.098-3.094-5.098s1.052,3.405,1.71,4.851c0.378,0.83,1.542,3.375,3.193,5.59
        c1.54,2.067,4.531,5.624,9.078,6.425c4.547,0.804,7.672-1.235,8.445-1.729c0.772-0.494,2.402-1.856,3.434-2.958
        c1.076-1.15,2.095-2.618,2.66-3.498c0.412-0.644,1.082-1.947,1.082-1.947L120.226,41.753L120.226,41.753z"/>
    <path fill="#FFFFFF" d="M41.712,0.648l10.279,34.908l10.28-34.908h7.443L52.7,58h-0.709L41.357,22.457L30.722,58h-0.708L13,0.648
        h7.443l10.279,34.908l6.948-23.508l-3.402-11.4H41.712z"/>
    <path fill="#FFFFFF" d="M90.851,39.591c0,5.193-1.383,9.559-4.148,13.101C83.938,56.229,80.358,58,75.963,58
        c-3.31,0-6.192-1.051-8.649-3.152c-2.457-2.099-4.277-4.942-5.459-8.531l5.813-2.406c0.852,2.172,1.974,3.882,3.369,5.132
        c1.394,1.251,3.035,1.876,4.926,1.876c1.984,0,3.663-1.109,5.034-3.327c1.371-2.219,2.056-4.885,2.056-8.002
        c0-3.446-0.732-6.112-2.197-8c-1.702-2.218-4.373-3.328-8.012-3.328h-2.835v-3.399l9.925-17.135H67.952l-3.332,5.664h-2.127V0.648
        h27.649v3.471L79.649,22.173c3.688,1.18,6.475,3.328,8.364,6.444C89.904,31.732,90.851,35.389,90.851,39.591L90.851,39.591z"/>
    <path fill="#FFFFFF" d="M127.281,2.025c0.734,0,1.07,0.203,1.07,0.713c0,0.488-0.336,0.661-1.05,0.661h-0.662V2.025H127.281
        L127.281,2.025z M127.424,1.516h-1.568v4.151h0.784V3.896h0.774l0.845,1.771h0.877l-0.928-1.893
        c0.602-0.121,0.948-0.529,0.948-1.12C129.156,1.903,128.585,1.516,127.424,1.516z M130.511,3.692c0,0.845-0.326,1.629-0.928,2.209
        c-0.632,0.611-1.417,0.936-2.282,0.936c-0.815,0-1.62-0.335-2.22-0.946c-0.603-0.61-0.938-1.394-0.938-2.228
        c0-0.835,0.347-1.649,0.969-2.279c0.58-0.59,1.364-0.905,2.221-0.905c0.875,0,1.66,0.325,2.272,0.946
        C130.195,2.014,130.511,2.809,130.511,3.692z M127.322,0c-0.988,0-1.874,0.356-2.547,1.038c-0.712,0.723-1.11,1.658-1.11,2.625
        s0.377,1.863,1.07,2.564c0.702,0.712,1.608,1.099,2.587,1.099c0.958,0,1.886-0.386,2.608-1.088C130.623,5.565,131,4.67,131,3.663
        c0-0.977-0.387-1.892-1.06-2.574C129.237,0.376,128.32,0,127.322,0z"/>
</g>
<!-- ponto -->
<path fill="#666" d="M292.068,167.039c0,8.366-7.273,12.549-11.429,12.549c-7.273,0-11.43-7.32-11.43-12.549
    s4.156-11.504,11.43-11.504C286.873,155.535,292.068,161.811,292.068,167.039z"/>

<!-- caixa da data -->
<!-- <path fill="#222" d="M450,59.327V189h-54.028V59.327H450z"/> -->

</svg>
