<svg xmlns="http://www.w3.org/2000/svg" xmlns:xlink="http://www.w3.org/1999/xlink"
	 width="100%" height="100%" viewBox="0 0 196 156">
	 <title>Web 25th Anniversary Logo</title>
	 <style type="text/css"><![CDATA[
      .style-red {
       fill: #EF4135;
      }

      .style-darkred {
        fill: #BF311A;
      }

      .style-blue {
        fill: #0078AE;
      }

      .style-green {
        fill: #7AC143;
      }
	 ]]></style>
	 
	 
  <g id="Icon">
  	<path class="style-darkred" d="M104.979,58c-3.15,4.985-6.82,10.565-10.961,16.361c-2.891-7.337-5.757-15.025-8.597-23.088
  		c2.672-4.535,5.274-9.094,7.858-13.625c0.931-1.63,1.826-3.198,2.691-4.706C98.688,40.706,101.686,49.164,104.979,58z
  		 M138.231,29.375c-3.154,4.553-6.527,9.758-10.146,15.488c2.65,7.887,5.879,17.102,9.631,26.856
  		c3.146-4.416,6.404-9.125,9.785-14.161c-2.893-8.26-5.795-17.051-8.707-26.389C138.604,30.559,138.417,29.963,138.231,29.375z"/>

    	<path class="style-red" d="M94.018,74.361c-5.632,7.884-12.139,16.159-19.415,23.884c-2.845-6.508-5.404-12.838-7.7-18.892
    		c-1.46-3.852-2.814-7.589-4.067-11.187c-2.608-7.486-4.775-14.348-6.562-20.363c2.863-5.453,5.854-11.368,9.042-17.816
    		c3.061-6.185,5.618-11.348,7.867-15.388c1.071,2.826,2.343,6.823,4.103,12.354c1.15,3.614,2.307,7.144,3.465,10.636
    		c1.55,4.666,3.106,9.238,4.672,13.684C88.261,59.336,91.127,67.024,94.018,74.361z M154.575,10.964
    		c-4.754,2.989-10.129,9.439-16.344,18.411c0.186,0.588,0.373,1.184,0.562,1.795c2.912,9.337,5.814,18.128,8.707,26.389
    		c0.205-0.308,0.408-0.602,0.613-0.912c6.314-9.445,11.352-16.721,15.506-22.236C160.573,24.151,157.827,16.099,154.575,10.964z
    		 M123.534,31.032c-0.225-0.699-0.451-1.388-0.674-2.072c-3.18-9.785-6.016-18.185-9.303-23.156
    		c-4.545,4.832-9.795,13.548-17.586,27.138c2.718,7.763,5.715,16.222,9.008,25.058c1.715,4.603,3.518,9.307,5.387,14.049
    		c3.008,7.628,6.213,15.357,9.617,22.997c5.49-6.712,11.381-14.415,17.732-23.327c-3.752-9.754-6.98-18.97-9.631-26.856
    		C126.301,39.568,124.774,34.858,123.534,31.032z"/>

  	<path class="style-blue" d="M51.059,29.017c0.486,1.852,1.076,4.092,1.768,6.649C34.993,73.831,23.854,89.911,9.904,98.162
  		C4.258,98.525,3.917,98.548,1,99.6c11.699-7.117,23.582-27.339,37.387-63.627c4.345-11.421,6.146-16.149,7.978-17.371
  		c0.455,0.143,1.058,0.332,1.514,0.474C49,21.159,49.113,21.604,51.059,29.017z M133.053,14.384
  		c-3.715-9.284-6.621-12.288-11.145-13.338c-2.814,0.157-5.439,1.663-8.352,4.759c3.287,4.971,6.123,13.371,9.303,23.156
  		C126.7,22.938,130.026,18.093,133.053,14.384z M38.767,107.289c6.398,3.536,7.904,4.523,15.145,9.255
  		c7.433-5.253,14.352-11.566,20.691-18.298c-2.845-6.508-5.404-12.838-7.7-18.892C58.956,89.71,49.858,99.275,38.767,107.289z
  		 M80.749,37.59c0.498-0.909,0.993-1.816,1.485-2.719c3.462-6.344,6.336-11.608,8.828-15.956
  		C87.118,7.868,85.396,4.664,81.502,4.641c-2.479,0.65-5.074,4.123-8.321,9.959c1.071,2.826,2.343,6.823,4.103,12.354
  		C78.434,30.568,79.59,34.098,80.749,37.59z M16.928,98.916c5.588,1.25,6.949,1.78,13.479,4.325
  		c12.833-8.592,23.308-21.236,32.429-35.074c-2.608-7.486-4.775-14.348-6.562-20.363C42.454,74.125,31.694,89.421,16.928,98.916z
  		 M162.161,9.397c-2.355-0.723-4.871-0.141-7.586,1.567c3.252,5.135,5.998,13.187,9.045,23.447
  		c3.396-4.507,6.199-7.826,8.625-10.183C169.088,15.804,166.211,11.64,162.161,9.397z M62.923,122.949
  		c6.643,4.986,8.6,6.562,15.882,12.424c3.175-2.38,6.524-5.011,10.082-8.034c-3.397-6.183-6.53-12.349-9.413-18.421
  		C73.462,114.683,67.98,119.143,62.923,122.949z M99.194,87.05c3.145,7.438,6.32,14.448,9.525,21.041
  		c3.562-3.889,7.311 -8.211,11.264-13.045 c-3.404-7.64-6.609-15.369 -9.617-22.997 C106.475,77.586,102.754,82.567,99.194,87.05z"/>
  	<path class="style-green" d="M73.181,14.6c-2.249,4.04-4.806,9.203-7.867,15.388c-3.188,6.448-6.179,12.363-9.042,17.816
  		c-1.361-4.58-2.504-8.667-3.445-12.138c-0.692-2.557-1.282-4.797-1.768-6.649c-1.946-7.412-2.059-7.857-3.18-9.941
  		c-0.456-0.143-1.06-0.332-1.514-0.474l1.863-1.054c4.196-2.27,6.283-3.354,9.437-4.717c3.095-1.461,5.393-2.362,9.939-4.042
  		l0.239-0.086C70.033,8.292,71.296,9.625,73.181,14.6z M99.194,87.05c-1.734-4.099-3.459-8.332-5.176-12.689
  		c-5.632,7.884-12.139,16.159-19.415,23.884c1.538,3.512,3.164,7.076,4.872,10.672c2.883,6.072,6.015,12.238,9.413,18.421
  		c4.97,9.04,10.495,18.109,16.657,26.954c3.475-5.451,8.83-13.731,15.34-23.407c-4.1-6.926-8.154-14.541-12.164-22.794
  		C105.514,101.499,102.338,94.488,99.194,87.05z M163.62,34.412c-4.154,5.515-9.191,12.791-15.506,22.236
  		c-0.205,0.31-0.408,0.604-0.613,0.912c3,8.564,5.988,16.559,8.961,23.966c5.32-6.751,10.648-13.158,15.787-18.842
  		c-2.318-7.055-4.686-14.712-7.104-23.061C164.625,37.822,164.12,36.097,163.62,34.412z M133.053,14.384
  		c1.531,3.827,3.199,8.726,5.178,14.991c6.215-8.972,11.59-15.421,16.344-18.411c-1.939-3.063-4.057-5.112-6.533-5.944
  		c-4.566-1.13-6.355-1.562-10.439-2.168c-3.955-0.761-6.307-1.054-10.531-1.417l-5.162-0.389
  		C126.432,2.096,129.338,5.1,133.053,14.384z M119.983,95.046c3.314,7.433,6.803,14.773,10.488,21.813
  		c5.17-7.432,10.738-15.222,16.447-22.874c-3.34-7.481-6.414-15.016-9.203-22.266C131.364,80.631,125.473,88.334,119.983,95.046z
  		 M91.062,18.916c0.729,2.043,1.534,4.355,2.443,6.965c0.791,2.269,1.619,4.643,2.466,7.062
  		c7.792-13.589,13.042-22.306,17.586-27.138c-2.045-3.089-4.262-4.858-6.85-4.804C101.12,1.49,93.654,2.196,88.156,3.212
  		l-6.654,1.429C85.396,4.664,87.118,7.868,91.062,18.916z M184.375,20.129c-4.74-2.643-11.119-6.122-16.143-8.303l-6.072-2.429
  		c4.051,2.243,6.928,6.406,10.084,14.831c2.131,5.683,4.387,13.305,7.221,23.59c0.535,1.944,1.064,3.83,1.596,5.693
  		c5.154-4.995,9.969-8.918,14.213-11.322C191.639,29.752,188.483,22.824,184.375,20.129z"/>
  </g>
</svg>
